Coordinates
version=1
nRows=9
nColumns=24
inDegrees=yes

Units are S.I. units (second, meters, Newtons, ...)
Angles are in degrees.

endheader
time	pelvis_tilt	pelvis_list	pelvis_rotation	pelvis_tx	pelvis_ty	pelvis_tz	hip_flexion_r	hip_adduction_r	hip_rotation_r	knee_angle_r	ankle_angle_r	subtalar_angle_r	mtp_angle_r	hip_flexion_l	hip_adduction_l	hip_rotation_l	knee_angle_l	ankle_angle_l	subtalar_angle_l	mtp_angle_l	lumbar_extension	lumbar_bending	lumbar_rotation
      5.88000000	     12.04256385	      3.71401461	     12.51335917	      1.47357226	      0.91722188	     -0.28435514	      7.40231219	     -5.86580555	     -7.85119962	     -1.67538227	     13.74795100	     -0.96590082	      0.00000000	    -28.03364048	      0.08545538	     15.81716063	    -11.46294586	     24.04057590	      3.31383870	      0.00000000	    -30.01071283	      1.30252388	    -16.99183706
      5.88500000	     12.11318844	      3.36524566	     12.67407654	      1.48046905	      0.91680421	     -0.28381498	      7.39465285	     -5.42834567	     -7.88943280	     -2.05492889	     13.61601492	     -1.23458765	      0.00000000	    -28.12849899	     -0.44030351	     15.61891039	    -12.19636745	     24.02079278	      3.77938485	      0.00000000	    -29.96600955	      1.73707687	    -16.90486206
      5.89000000	     12.23570112	      2.97512522	     12.80597505	      1.48738839	      0.91647854	     -0.28316911	      7.35642075	     -4.92310032	     -7.89244729	     -2.52879085	     13.48997502	     -1.52030209	      0.00000000	    -28.24812477	     -1.01273619	     15.30874131	    -12.97040588	     23.98181263	      4.34563853	      0.00000000	    -29.97235594	      2.20972745	    -16.81504268
      5.89500000	     12.39834682	      2.53630643	     12.90897033	      1.49439361	      0.91623725	     -0.28246342	      7.28988503	     -4.34597288	     -7.88930042	     -3.07550354	     13.37422277	     -1.80485799	      0.00000000	    -28.38839978	     -1.63056366	     14.91571620	    -13.77529623	     23.88604962	      4.93929290	      0.00000000	    -30.00072228	      2.72357813	    -16.68222138
      5.90000000	     12.55285719	      2.05854623	     13.00529166	      1.50143970	      0.91602903	     -0.28174316	      7.24747691	     -3.72641950	     -7.88467909	     -3.70071289	     13.27461919	     -2.05508370	      0.00000000	    -28.48657413	     -2.27579600	     14.52084185	    -14.63754106	     23.75537806	      5.53191781	      0.00000000	    -30.00749771	      3.27009684	    -16.51202200
      5.90500000	     12.81099007	      1.55874946	     13.04375234	      1.50851117	      0.91594813	     -0.28089170	      7.10485658	     -3.04087039	     -7.80930940	     -4.36887973	     13.16943259	     -2.34504713	      0.00000000	    -28.67473559	     -2.94775350	     13.98500441	    -15.53475192	     23.57011144	      6.20947766	      0.00000000	    -30.12575607	      3.83590319	    -16.32008401
      5.91000000	     12.91572050	      1.01356765	     13.14650119	      1.51570108	      0.91578211	     -0.28014315	      7.12880552	     -2.35352553	     -7.87015756	     -5.11330571	     13.09665281	     -2.53780315	      0.00000000	    -28.65960811	     -3.64521671	     13.56668368	    -16.49696746	     23.32425381	      6.79550526	      0.00000000	    -30.04044922	      4.42720004	    -16.10429022
      5.91500000	     13.12444291	      0.46009937	     13.17111041	      1.52285920	      0.91572989	     -0.27921643	      7.05437539	     -1.61068152	     -7.79086846	     -5.88713374	     12.99468135	     -2.81163087	      0.00000000	    -28.73082808	     -4.35008721	     12.99558541	    -17.50596247	     23.04802507	      7.52260790	      0.00000000	    -30.08403268	      5.01551300	    -15.86957233
      5.92000000	     13.25042841	     -0.12198496	     13.23288009	      1.53010813	      0.91564623	     -0.27833349	      7.05771824	     -0.86037974	     -7.80327795	     -6.68609210	     12.91896071	     -3.00414180	      0.00000000	    -28.67166810	     -5.07521324	     12.46677476	    -18.58795107	     22.70352919	      8.19859801	      0.00000000	    -30.01379140	      5.62176187	    -15.63677363
